<mxfile host="app.diagrams.net" modified="2023-12-29T09:02:24.671Z" agent="Mozilla/5.0 (Macintosh; Intel Mac OS X 10_15_7) AppleWebKit/537.36 (KHTML, like Gecko) Chrome/120.0.0.0 Safari/537.36" version="22.1.15" etag="BQHc5m2Q1vG6n_6WUEQB" type="github">
  <diagram name="第 1 页" id="eQPTPWkGnef5QxkQVKtb">
    <mxGraphModel>
      <root>
        <mxCell id="0" />
        <mxCell id="1" parent="0" />
      </root>
    </mxGraphModel>
  </diagram>
</mxfile>
